<?xml version="1.0" standalone="no"?>
<!DOCTYPE svg PUBLIC "-//W3C//DTD SVG 20010904//EN"
 "http://www.w3.org/TR/2001/REC-SVG-20010904/DTD/svg10.dtd">
<svg version="1.0" xmlns="http://www.w3.org/2000/svg"
 width="794.000000pt" height="97.000000pt" viewBox="0 0 794.000000 97.000000"
 preserveAspectRatio="xMidYMid meet">

<g transform="translate(0.000000,97.000000) scale(0.100000,-0.100000)"
fill="#000000" stroke="none">
<path d="M1808 714 c-27 -13 -48 -26 -48 -29 0 -2 12 -3 28 -2 l27 2 3 -220
c3 -214 2 -220 -19 -237 -21 -18 -19 -18 47 -17 66 0 68 1 47 16 -23 15 -23
18 -23 259 0 133 -3 245 -7 247 -5 3 -29 -6 -55 -19z"/>
<path d="M3588 718 c-47 -20 -68 -46 -27 -33 32 10 39 -9 39 -107 l0 -86 -57
4 c-104 9 -175 -56 -175 -155 1 -65 24 -109 69 -127 42 -18 79 -12 128 21 34
24 35 24 35 4 0 -29 26 -34 73 -13 l42 19 -35 5 -35 5 -5 242 -5 242 -47 -21z
m-13 -263 c22 -21 25 -33 25 -99 0 -68 -2 -76 -26 -95 -37 -29 -61 -34 -95
-20 -38 15 -61 60 -61 119 0 48 22 104 44 113 36 15 90 6 113 -18z"/>
<path d="M6898 714 c-27 -13 -48 -26 -48 -29 0 -2 12 -3 28 -2 l27 2 3 -220
c3 -214 2 -220 -19 -237 -21 -18 -19 -18 47 -18 65 0 67 1 46 16 -22 15 -22
18 -22 259 0 134 -3 246 -7 248 -5 3 -29 -6 -55 -19z"/>
<path d="M7428 714 c-27 -13 -48 -26 -48 -29 0 -2 12 -3 28 -2 l27 2 3 -220
c3 -214 2 -220 -19 -237 -21 -18 -19 -18 47 -18 65 0 67 1 46 16 -18 12 -22
25 -22 70 0 41 4 56 16 61 17 6 27 -3 81 -81 26 -37 27 -39 8 -52 -17 -12 -10
-14 61 -13 l79 0 -33 17 c-20 10 -57 48 -89 92 l-55 75 33 28 c19 15 56 36 84
47 l50 19 -85 0 c-61 0 -79 -3 -62 -9 12 -5 22 -14 22 -19 0 -9 -93 -91 -104
-91 -3 0 -6 81 -6 179 0 99 -3 182 -7 184 -5 3 -29 -6 -55 -19z"/>
<path d="M1469 623 c-11 -27 -43 -102 -71 -168 -73 -175 -95 -214 -126 -228
-27 -11 -27 -11 15 -15 23 -2 64 -2 90 0 l48 3 -35 11 c-46 13 -49 39 -15 120
l27 64 84 0 85 0 34 -76 c19 -42 35 -82 35 -89 0 -8 -12 -18 -27 -23 -23 -8
-11 -11 61 -11 89 -1 96 2 54 23 -16 8 -53 76 -123 223 -55 117 -104 212 -108
213 -4 0 -17 -21 -28 -47z m54 -115 l36 -78 -74 0 c-73 0 -74 0 -66 23 22 56
62 140 65 136 2 -2 20 -39 39 -81z"/>
<path d="M4210 653 c46 -8 50 -25 50 -209 0 -95 -3 -180 -6 -189 -4 -10 -21
-23 -38 -31 -29 -12 -24 -13 64 -13 81 1 90 3 63 11 l-33 11 0 103 c0 56 4
105 9 108 5 3 51 -47 103 -111 l93 -118 60 -2 60 -2 -40 18 c-37 17 -110 98
-205 229 l-24 32 55 56 c61 62 107 94 153 104 22 6 6 8 -54 8 -65 1 -79 -2
-61 -9 24 -10 23 -12 -60 -95 l-84 -85 -3 77 c-4 93 -1 101 35 107 15 2 -15 4
-67 4 -52 0 -84 -2 -70 -4z"/>
<path d="M2250 616 c0 -30 13 -40 41 -31 31 10 21 49 -13 53 -24 3 -28 0 -28
-22z"/>
<path d="M2027 520 c-3 -11 -17 -24 -31 -30 -26 -10 -26 -10 -7 -29 18 -18 20
-32 18 -110 -3 -106 3 -128 40 -142 33 -13 93 2 114 28 12 15 12 16 -6 9 -43
-18 -66 -18 -85 -1 -17 16 -20 31 -20 118 l0 99 50 -4 c42 -2 50 0 50 15 0 14
-9 17 -50 17 -47 0 -50 2 -50 25 0 30 -16 33 -23 5z"/>
<path d="M2796 483 c-4 -16 -9 -37 -12 -48 -5 -17 -2 -16 20 7 27 28 73 42
119 36 25 -3 23 -6 -59 -128 -46 -68 -84 -128 -84 -133 0 -4 53 -6 118 -5
l117 3 2 45 c2 39 1 42 -10 26 -31 -48 -46 -56 -107 -56 l-60 0 85 128 85 127
-95 3 c-52 1 -95 7 -95 12 0 22 -18 8 -24 -17z"/>
<path d="M2248 478 c-54 -23 -61 -34 -20 -33 l27 0 3 -100 c3 -92 1 -101 -19
-118 -21 -17 -19 -17 47 -17 65 0 67 1 46 16 -21 14 -22 22 -22 145 0 71 -3
129 -7 128 -5 0 -29 -10 -55 -21z"/>
<path d="M2428 479 c-44 -22 -49 -34 -13 -25 33 8 45 -21 45 -112 0 -85 -6
-107 -33 -120 -18 -8 -7 -11 53 -11 67 -1 72 1 50 12 -24 12 -25 17 -28 110
l-3 97 33 20 c45 27 73 25 97 -6 18 -22 21 -41 21 -115 0 -86 -1 -89 -27 -103
-27 -15 -25 -15 47 -15 61 0 71 2 55 11 -32 18 -35 28 -35 134 0 92 -2 102
-23 122 -32 30 -84 29 -131 -3 l-36 -24 -6 24 c-7 30 -17 30 -66 4z"/>
<path d="M3145 481 c-47 -21 -69 -45 -61 -66 10 -27 35 -16 56 25 15 30 26 40
45 40 31 0 45 -26 45 -82 l0 -44 -55 -18 c-30 -11 -64 -28 -75 -38 -22 -21
-26 -58 -8 -76 16 -16 67 -15 98 3 33 19 50 19 50 0 0 -20 34 -19 73 2 l32 18
-32 3 -33 3 0 82 c0 161 -32 195 -135 148z m68 -227 c-42 -32 -106 7 -70 43
10 10 32 23 50 29 32 11 32 11 35 -23 2 -25 -2 -39 -15 -49z"/>
<path d="M3836 490 c-80 -25 -124 -136 -84 -216 31 -65 131 -91 193 -50 35 23
29 27 -20 14 -76 -19 -138 35 -133 117 l3 39 75 2 c41 1 81 2 88 3 19 2 14 56
-7 75 -23 21 -76 28 -115 16z m68 -32 c29 -41 21 -48 -49 -48 -72 0 -78 8 -40
45 30 31 69 32 89 3z"/>
<path d="M4663 480 c-47 -21 -56 -33 -20 -28 21 3 22 0 28 -99 4 -80 9 -107
24 -123 24 -27 89 -27 130 0 37 25 45 25 45 2 0 -30 10 -32 57 -9 45 22 45 22
17 27 l-29 5 -3 123 c-3 137 0 133 -74 95 -34 -16 -36 -25 -5 -21 21 3 22 0
25 -87 l3 -90 -30 -18 c-40 -24 -77 -22 -95 5 -12 17 -16 49 -16 130 0 60 -3
108 -7 108 -5 0 -27 -9 -50 -20z"/>
<path d="M5323 480 c-47 -21 -56 -33 -20 -28 21 3 22 0 28 -99 4 -80 9 -107
24 -123 25 -27 93 -27 128 0 31 25 47 25 47 2 0 -30 10 -32 57 -9 45 22 45 22
17 27 l-29 5 -3 123 c-3 137 0 133 -74 95 -34 -16 -36 -25 -5 -21 21 3 22 0
25 -87 l3 -90 -30 -18 c-38 -22 -74 -22 -94 1 -14 15 -17 40 -17 130 0 62 -3
112 -7 112 -5 0 -27 -9 -50 -20z"/>
<path d="M5688 479 c-44 -22 -49 -34 -13 -25 33 8 45 -21 45 -112 0 -85 -6
-107 -33 -120 -18 -8 -6 -11 53 -11 72 0 74 0 48 15 -28 14 -28 16 -28 109 l0
95 33 20 c38 24 56 25 83 6 16 -12 20 -29 22 -114 4 -95 3 -100 -19 -116 -23
-15 -21 -16 43 -16 l67 0 -24 25 c-22 21 -25 33 -25 99 0 64 3 79 23 100 31
35 68 42 97 18 21 -17 25 -30 28 -96 5 -93 -1 -120 -30 -134 -19 -9 -10 -11
52 -11 72 0 74 0 48 15 -28 15 -28 15 -28 120 0 98 -2 107 -25 129 -37 38 -88
31 -142 -17 -21 -19 -21 -19 -27 0 -7 22 -46 42 -80 42 -13 0 -40 -11 -60 -25
l-36 -24 -6 24 c-7 30 -17 30 -66 4z"/>
<path d="M6300 478 c-25 -13 -53 -37 -63 -55 -36 -64 -17 -163 39 -199 35 -23
123 -23 158 0 36 23 30 27 -20 14 -82 -22 -144 32 -144 125 0 74 29 116 82
117 19 0 33 -8 44 -25 18 -28 52 -33 61 -9 18 47 -86 69 -157 32z"/>
<path d="M6523 480 c-47 -21 -56 -33 -20 -28 21 3 22 0 28 -99 4 -80 9 -107
24 -123 25 -27 93 -27 128 0 31 25 47 25 47 2 0 -30 10 -32 57 -9 45 22 45 22
17 27 l-29 5 -3 123 c-3 137 0 133 -74 95 -34 -16 -36 -25 -5 -21 21 3 22 0
25 -87 l3 -90 -30 -18 c-38 -22 -74 -22 -94 1 -14 15 -17 40 -17 130 0 62 -3
112 -7 112 -5 0 -27 -9 -50 -20z"/>
<path d="M7073 480 c-47 -21 -56 -33 -20 -28 21 3 22 0 28 -99 4 -80 9 -107
24 -123 24 -27 89 -27 130 0 37 25 45 25 45 2 0 -30 10 -32 57 -9 45 22 45 22
17 27 l-29 5 -3 123 c-3 137 0 133 -74 95 -34 -16 -36 -25 -5 -21 21 3 22 0
25 -87 l3 -90 -30 -18 c-38 -22 -74 -22 -94 1 -14 15 -17 40 -17 130 0 62 -3
112 -7 112 -5 0 -27 -9 -50 -20z"/>
<path d="M4978 483 c7 -3 42 -64 78 -135 74 -148 75 -156 23 -246 l-30 -53
-51 3 c-34 2 -52 -1 -55 -9 -3 -10 11 -13 51 -13 51 0 57 2 82 35 15 20 58
115 95 213 41 106 77 184 90 195 21 17 20 17 -42 16 -43 -1 -56 -3 -39 -8 14
-4 26 -15 28 -24 4 -20 -46 -177 -57 -177 -9 0 -91 166 -91 184 0 8 10 17 23
19 12 2 -9 5 -48 5 -38 0 -64 -2 -57 -5z"/>
</g>
</svg>
