<?xml version="1.0" standalone="no"?>
<!DOCTYPE svg PUBLIC "-//W3C//DTD SVG 20010904//EN"
 "http://www.w3.org/TR/2001/REC-SVG-20010904/DTD/svg10.dtd">
<svg version="1.0" xmlns="http://www.w3.org/2000/svg"
 width="513.000000pt" height="106.000000pt" viewBox="0 0 513.000000 106.000000"
 preserveAspectRatio="xMidYMid meet">

<g transform="translate(0.000000,106.000000) scale(0.100000,-0.100000)"
fill="#000000" stroke="none">
<path d="M2525 945 c-47 -17 -72 -44 -80 -88 -3 -18 -5 -158 -3 -312 3 -262 4
-282 23 -307 29 -40 84 -58 171 -58 143 0 176 33 182 183 l4 97 -40 0 -40 0
-4 -90 c-5 -110 -19 -131 -95 -137 -61 -5 -95 12 -110 57 -15 45 -17 499 -3
552 13 44 37 60 94 60 93 2 116 -30 116 -162 l0 -80 40 0 40 0 0 96 c0 119
-16 158 -74 185 -50 23 -163 25 -221 4z"/>
<path d="M4305 950 c-102 -16 -144 -73 -145 -192 l0 -68 39 0 c35 0 39 3 45
31 3 17 6 46 6 63 0 49 33 94 75 102 56 10 97 -6 117 -46 32 -63 18 -171 -30
-223 -9 -10 -58 -43 -108 -72 -125 -74 -137 -93 -142 -242 l-5 -113 202 0 201
0 0 35 0 35 -156 0 -157 0 6 60 c11 97 34 128 134 179 59 30 110 77 136 125
30 58 31 194 1 250 -32 63 -119 93 -219 76z"/>
<path d="M100 570 l0 -380 40 0 40 0 2 182 3 183 108 3 107 3 0 -186 0 -185
40 0 40 0 0 380 0 380 -40 0 -40 0 0 -165 0 -165 -110 0 -110 0 0 165 0 165
-40 0 -40 0 0 -380z"/>
<path d="M4726 685 c-108 -210 -136 -273 -136 -305 l0 -40 130 0 130 0 0 -75
0 -75 45 0 45 0 0 75 0 75 35 0 c32 0 35 2 35 30 0 28 -3 30 -35 30 l-35 0 0
275 0 275 -39 0 -39 0 -136 -265z m124 -100 l0 -185 -90 0 c-55 0 -90 4 -90
10 0 10 172 360 178 360 1 0 2 -83 2 -185z"/>
<path d="M706 830 c-41 -13 -74 -48 -86 -89 -14 -50 -13 -420 1 -462 17 -51
46 -76 101 -89 52 -13 131 -7 173 12 14 6 34 30 45 53 18 38 20 61 20 259 0
243 -6 273 -64 303 -36 19 -148 27 -190 13z m134 -60 c32 -17 40 -66 40 -260
0 -245 -9 -270 -97 -270 -82 1 -93 34 -93 270 0 183 7 233 37 256 21 16 86 18
113 4z"/>
<path d="M1631 831 c-76 -20 -112 -104 -90 -209 12 -60 35 -82 141 -132 89
-43 101 -58 106 -134 4 -55 1 -66 -19 -89 -34 -37 -105 -41 -139 -7 -16 16
-20 33 -20 85 l0 65 -45 0 c-43 0 -45 -1 -45 -29 0 -57 21 -135 41 -157 45
-48 197 -54 262 -10 41 28 60 82 55 163 -5 84 -25 109 -128 159 -114 56 -133
80 -128 156 5 74 23 93 84 92 63 -1 84 -25 91 -102 6 -63 14 -71 67 -72 17 0
18 6 14 70 -8 111 -46 150 -151 156 -34 2 -77 -1 -96 -5z"/>
<path d="M2066 827 c-21 -6 -48 -25 -60 -40 -20 -27 -21 -43 -24 -255 -4 -259
4 -299 61 -329 43 -22 152 -28 202 -11 55 18 85 77 85 165 l0 63 -40 0 -40 0
0 -47 c0 -110 -33 -151 -109 -139 -66 10 -76 31 -76 164 l0 117 133 3 132 3 0
105 c0 168 -26 205 -153 210 -40 2 -90 -2 -111 -9z m159 -67 c14 -16 18 -38
19 -108 l1 -87 -94 -3 -94 -3 5 85 c6 115 20 136 92 136 40 0 57 -5 71 -20z"/>
<path d="M3025 826 c-56 -25 -70 -50 -74 -137 l-3 -79 36 0 c36 0 36 0 36 43
0 59 18 115 40 127 38 20 112 7 132 -24 4 -6 8 -33 8 -59 0 -57 -20 -82 -101
-123 -89 -44 -140 -84 -155 -120 -18 -43 -18 -165 0 -209 8 -18 23 -38 33 -43
59 -32 156 -20 199 23 l24 24 0 -29 c0 -29 2 -30 46 -30 l46 0 -4 283 c-3 316
-5 324 -73 353 -43 18 -150 18 -190 0z m164 -508 c-16 -49 -38 -68 -86 -75
-29 -4 -44 0 -63 15 -23 19 -25 27 -25 101 0 93 5 101 115 173 l65 43 3 -110
c2 -67 -2 -124 -9 -147z"/>
<path d="M3806 827 c-21 -6 -48 -25 -60 -40 -20 -27 -21 -40 -21 -265 0 -263
5 -291 59 -319 42 -22 151 -28 200 -11 55 18 78 60 84 154 l5 74 -42 0 -41 0
-1 -52 c-1 -115 -41 -155 -129 -129 -34 10 -41 17 -50 51 -6 22 -9 82 -8 132
l3 93 133 3 132 3 0 105 c0 168 -26 205 -153 210 -40 2 -90 -2 -111 -9z m159
-67 c14 -16 18 -38 19 -108 l1 -87 -94 -3 -94 -3 5 85 c6 115 20 136 92 136
40 0 57 -5 71 -20z"/>
<path d="M1072 541 l3 -290 29 -30 c50 -52 147 -54 206 -5 l29 25 7 -25 c5
-22 12 -26 40 -26 l34 0 0 320 0 320 -40 0 -40 0 0 -255 c0 -276 -5 -306 -52
-321 -46 -14 -92 -6 -115 21 -23 26 -23 31 -23 291 l0 264 -40 0 -41 0 3 -289z"/>
<path d="M3410 510 l0 -320 40 0 40 0 0 254 c0 253 0 253 24 279 23 25 80 47
124 47 18 0 22 6 22 30 0 29 -2 30 -46 30 -46 0 -114 -25 -114 -41 0 -5 -4 -9
-10 -9 -5 0 -10 11 -10 25 0 22 -4 25 -35 25 l-35 0 0 -320z"/>
</g>
</svg>
