<?xml version="1.0" standalone="no"?>
<!DOCTYPE svg PUBLIC "-//W3C//DTD SVG 20010904//EN"
 "http://www.w3.org/TR/2001/REC-SVG-20010904/DTD/svg10.dtd">
<svg version="1.0" xmlns="http://www.w3.org/2000/svg"
 width="448.000000pt" height="274.000000pt" viewBox="0 0 448.000000 274.000000"
 preserveAspectRatio="xMidYMid meet">

<g transform="translate(0.000000,274.000000) scale(0.100000,-0.100000)"
fill="#000000" stroke="none">
<path d="M3083 2608 c-71 -99 -197 -228 -384 -391 -161 -140 -235 -224 -275
-313 -12 -28 -30 -54 -39 -58 -9 -3 -60 -3 -113 0 l-97 7 -67 -55 c-37 -31
-64 -58 -61 -62 14 -14 43 -4 93 30 52 35 53 36 99 23 39 -11 63 -30 162 -132
l115 -120 106 50 105 50 5 74 c9 135 70 222 273 389 50 41 96 81 103 90 25 29
42 78 34 99 -6 18 -25 4 -167 -120 -87 -77 -162 -143 -165 -147 -11 -15 -49
-31 -54 -24 -6 10 79 93 174 172 113 94 204 182 222 214 12 21 17 54 18 104 0
70 -12 95 -24 48 -8 -33 -70 -122 -125 -180 -25 -26 -102 -93 -171 -148 -69
-55 -169 -146 -222 -201 -53 -56 -100 -98 -103 -95 -24 24 106 164 274 296
122 96 185 154 233 214 58 71 113 195 106 239 -2 16 -14 5 -55 -53z"/>
<path d="M1225 2619 c10 -57 65 -148 131 -218 44 -47 120 -107 232 -183 199
-134 298 -228 325 -305 10 -28 17 -62 15 -75 -4 -22 -5 -22 -12 -3 -45 113
-121 197 -267 295 -53 36 -129 87 -169 115 -94 64 -220 189 -244 243 -10 23
-23 42 -28 42 -4 0 -8 -25 -8 -55 0 -59 20 -119 48 -145 36 -33 160 -128 222
-170 183 -125 276 -221 338 -349 32 -66 35 -82 36 -160 l1 -86 150 -90 c83
-49 161 -98 175 -107 13 -10 33 -18 42 -18 14 0 11 7 -14 29 -30 27 -31 31
-18 45 14 14 21 12 67 -19 59 -40 63 -41 63 -20 0 8 -18 31 -40 51 -22 20 -40
45 -40 55 0 34 41 21 96 -31 29 -27 58 -50 63 -50 25 0 8 35 -41 87 -55 57
-66 85 -35 91 11 2 39 -20 79 -62 34 -36 70 -66 80 -66 38 0 31 10 -150 201
-79 84 -103 90 -172 47 -41 -26 -56 -30 -91 -25 -27 3 -52 15 -68 32 l-26 26
43 40 44 39 -16 46 c-36 105 -128 208 -306 338 -58 43 -118 87 -135 99 -124
92 -355 312 -355 337 0 6 -5 10 -10 10 -6 0 -8 -13 -5 -31z"/>
<path d="M1250 2255 c0 -61 32 -93 217 -222 50 -35 113 -88 142 -118 66 -70
114 -169 113 -233 -1 -45 0 -48 40 -70 52 -28 61 -18 52 58 -6 56 -50 180 -63
180 -4 0 -13 11 -19 24 -6 14 -28 44 -49 67 -52 58 -200 172 -213 164 -6 -4
-9 -2 -8 3 4 12 -34 46 -87 80 -22 14 -42 28 -45 31 -3 3 -22 19 -42 34 l-38
28 0 -26z"/>
<path d="M3055 2102 c-16 -15 -41 -35 -55 -45 -50 -35 -144 -134 -182 -192
-67 -103 -19 -81 128 58 42 39 82 76 90 80 18 10 64 89 64 110 0 24 -10 21
-45 -11z"/>
<path d="M1312 2068 c13 -35 54 -81 113 -124 22 -16 42 -31 45 -35 33 -37 167
-125 177 -116 18 19 -125 165 -227 232 -41 27 -81 55 -88 62 -23 22 -31 14
-20 -19z"/>
<path d="M2960 1894 c-57 -57 -164 -137 -186 -137 -14 0 -27 -68 -15 -80 21
-21 201 159 250 251 6 12 10 22 9 22 -2 0 -28 -25 -58 -56z"/>
<path d="M1430 1876 c55 -76 239 -230 256 -214 3 3 2 22 -1 42 -6 28 -13 37
-39 46 -34 11 -90 48 -187 125 l-64 50 35 -49z"/>
<path d="M2002 1153 c-47 -23 -63 -47 -122 -185 -29 -68 -55 -126 -59 -131 -8
-8 -81 168 -81 196 0 14 -10 17 -57 17 -53 0 -55 -1 -40 -18 9 -9 46 -82 82
-162 37 -80 68 -146 70 -148 2 -2 12 16 23 40 142 321 179 383 234 400 21 5
21 6 3 7 -11 0 -35 -7 -53 -16z"/>
<path d="M2150 1031 c0 -19 3 -21 14 -11 8 6 32 12 53 13 l38 2 0 -157 0 -156
40 1 40 2 -3 149 c-2 95 0 151 7 155 5 4 29 5 51 3 31 -3 44 -10 50 -26 7 -18
9 -16 9 14 l1 35 -150 0 -150 0 0 -24z"/>
<path d="M2010 1035 c8 -10 11 -56 8 -163 l-3 -148 38 1 38 0 2 163 2 162 -49
0 c-41 0 -47 -2 -36 -15z"/>
<path d="M2566 938 c-27 -62 -60 -135 -73 -162 -13 -28 -23 -51 -23 -52 0 0
10 -1 21 0 17 1 25 12 36 49 l14 47 55 0 c53 0 55 -1 69 -34 8 -19 12 -41 10
-48 -4 -10 8 -14 50 -14 31 0 54 2 52 5 -11 21 -109 226 -127 269 -12 28 -25
52 -29 52 -3 0 -28 -51 -55 -112z m53 -35 c8 -21 16 -44 18 -50 4 -9 -8 -13
-40 -13 l-45 0 21 50 c11 28 24 50 27 50 3 0 12 -17 19 -37z"/>
<path d="M825 241 c0 -77 6 -83 67 -75 37 4 49 14 48 40 0 10 -1 33 -1 49 -1
43 -15 55 -68 55 l-46 0 0 -69z m73 26 c2 -10 -3 -17 -12 -17 -10 0 -16 9 -16
21 0 24 23 21 28 -4z m7 -57 c0 -8 -8 -16 -17 -18 -13 -2 -18 3 -18 18 0 15 5
20 18 18 9 -2 17 -10 17 -18z"/>
<path d="M1000 301 c0 -6 5 -13 10 -16 14 -9 13 -92 -2 -97 -28 -10 6 -24 54
-24 47 1 53 4 56 24 2 12 -1 22 -7 22 -6 0 -11 -4 -11 -10 0 -5 -9 -10 -20
-10 -11 0 -20 7 -20 15 0 8 9 15 20 15 11 0 20 7 20 15 0 9 -9 15 -24 15 -19
0 -23 4 -19 21 3 12 11 18 19 15 8 -3 21 -9 29 -12 11 -4 15 0 15 15 0 19 -6
21 -60 21 -33 0 -60 -4 -60 -9z"/>
<path d="M1180 289 c0 -18 4 -20 25 -15 24 6 25 4 25 -37 0 -24 -5 -48 -12
-55 -7 -7 -8 -13 -2 -13 5 -1 21 -3 36 -5 29 -3 46 10 28 21 -5 3 -10 27 -10
52 0 43 1 45 25 39 20 -5 25 -3 25 14 0 18 -6 20 -70 20 -65 0 -70 -2 -70 -21z"/>
<path d="M1380 301 c0 -6 5 -13 10 -16 14 -8 13 -95 -1 -95 -22 0 -2 -24 23
-27 27 -4 46 11 28 22 -12 7 -13 35 -2 35 5 0 15 -11 22 -25 7 -14 22 -25 32
-25 22 0 23 9 3 37 -13 18 -13 22 0 33 18 15 19 42 3 58 -14 14 -118 16 -118
3z m88 -34 c2 -10 -3 -17 -11 -17 -16 0 -30 24 -19 34 10 10 27 1 30 -17z"/>
<path d="M1570 301 c0 -6 5 -13 10 -16 14 -8 13 -95 -1 -95 -6 0 -9 -6 -6 -12
2 -8 24 -13 60 -13 53 -1 57 1 57 22 0 13 -4 23 -10 23 -5 0 -10 -5 -10 -11 0
-13 -40 -8 -43 6 -1 6 8 11 21 13 27 4 30 32 2 32 -14 0 -20 7 -20 21 0 15 4
19 15 15 8 -3 22 -9 30 -12 11 -4 15 0 15 15 0 19 -6 21 -60 21 -33 0 -60 -4
-60 -9z"/>
<path d="M1758 258 c2 -29 9 -61 14 -70 12 -24 54 -33 83 -20 25 12 30 25 38
100 5 40 4 42 -22 42 -27 0 -28 -1 -23 -55 4 -45 1 -56 -13 -61 -10 -4 -21 -1
-26 7 -12 19 -11 89 1 89 6 0 10 5 10 10 0 6 -15 10 -34 10 l-33 0 5 -52z"/>
<path d="M1968 258 c2 -29 9 -61 14 -70 12 -24 54 -33 83 -20 25 12 30 25 38
100 5 40 4 42 -22 42 -27 0 -27 0 -23 -60 4 -55 3 -60 -16 -60 -11 0 -23 7
-26 16 -10 25 -7 84 4 84 6 0 10 5 10 10 0 6 -15 10 -34 10 l-33 0 5 -52z"/>
<path d="M2176 238 c1 -65 3 -73 20 -73 16 0 19 7 16 40 l-3 40 40 -45 c26
-30 43 -42 49 -35 6 6 12 40 14 78 l4 67 -28 0 c-28 0 -37 -13 -18 -25 6 -3
10 -18 10 -32 0 -25 -1 -25 -32 15 -19 25 -41 42 -53 42 -18 0 -20 -6 -19 -72z"/>
<path d="M2398 293 c-57 -65 -8 -143 78 -127 31 6 34 10 34 40 0 30 -3 34 -25
34 -22 0 -25 -3 -19 -25 5 -21 3 -25 -15 -25 -14 0 -25 9 -31 26 -13 34 -13
40 6 59 15 14 18 14 40 0 31 -20 34 -19 34 10 0 23 -4 25 -43 25 -29 0 -49 -6
-59 -17z"/>
<path d="M2580 295 c-18 -22 -8 -47 29 -72 28 -19 31 -24 17 -29 -10 -4 -22
-2 -29 5 -17 17 -27 13 -27 -9 0 -47 101 -31 108 18 3 17 -5 26 -32 39 -20 9
-36 23 -36 30 0 16 22 17 38 1 14 -14 38 4 28 21 -10 16 -82 13 -96 -4z"/>
<path d="M2730 301 c0 -6 5 -13 11 -17 6 -3 9 -29 7 -62 -3 -54 -3 -55 25 -56
25 -2 27 1 22 23 -7 26 9 43 32 34 16 -6 17 -30 1 -36 -19 -6 -7 -15 27 -21
l30 -5 0 74 0 75 -32 0 c-34 0 -41 -8 -22 -27 15 -15 3 -33 -23 -33 -17 0 -20
4 -14 30 5 29 4 30 -29 30 -19 0 -35 -4 -35 -9z"/>
<path d="M2955 236 l0 -73 30 3 c17 1 32 3 35 3 2 1 -1 6 -8 13 -14 14 -16 94
-2 103 20 13 9 25 -22 25 l-33 0 0 -74z"/>
<path d="M3070 301 c0 -6 5 -13 11 -17 8 -4 10 -27 6 -65 l-5 -58 42 4 c22 1
47 3 54 4 6 1 12 10 12 21 0 21 -15 27 -25 10 -3 -5 -13 -10 -22 -10 -13 0
-15 10 -11 60 l4 60 -33 0 c-18 0 -33 -4 -33 -9z"/>
<path d="M3255 238 l0 -73 33 -1 c21 -1 32 3 32 12 0 8 -4 14 -10 14 -5 0 -10
7 -10 15 0 9 9 15 25 15 16 0 25 6 25 15 0 9 -10 15 -26 15 -19 0 -25 4 -22
18 2 9 11 15 19 13 8 -2 22 -6 33 -9 14 -4 17 0 14 14 -3 15 -13 20 -58 22
l-55 3 0 -73z"/>
<path d="M3420 300 c0 -5 5 -10 11 -10 8 0 10 -20 6 -65 l-5 -66 57 5 c31 3
57 5 59 5 1 1 2 10 2 21 0 21 -15 27 -25 10 -11 -18 -47 -12 -43 8 2 10 11 16
21 14 10 -2 17 4 17 13 0 8 -9 15 -20 15 -14 0 -20 7 -20 21 0 16 4 19 18 14
44 -18 51 -18 45 4 -5 18 -13 21 -64 21 -33 0 -59 -4 -59 -10z"/>
</g>
</svg>
