<?xml version="1.0" encoding="utf-8"?>
<!-- Generator: Adobe Illustrator 19.2.1, SVG Export Plug-In . SVG Version: 6.00 Build 0)  -->
<svg version="1.1" id="layer" xmlns="http://www.w3.org/2000/svg" xmlns:xlink="http://www.w3.org/1999/xlink" x="0px" y="0px"
	 viewBox="0 0 652 652" style="enable-background:new 0 0 652 652;" xml:space="preserve">
<style type="text/css">
	.st0{fill:#FFFFFF;}
	.st1{fill:#FF6600;}
	.st2{fill:#0066B3;}
</style>
<path class="st0" d="M25.1,274.3h144.8v101.8H25.1V274.3z"/>
<path class="st1" d="M169.9,358.1h-55c-1.5,8.3-2.8,15.3-3.2,18.1h58.3V358.1z M25.1,358.1v18.1h58.3l-3.9-18.1H25.1z"/>
<path class="st2" d="M53.6,315.9l-4.3-18.6h36.1l11.7,53.1h0.5l7.3-33.8c3.7-15.5,5.1-19.2,26-19.2h15c0,0-3,14.3-6.8,29.9
	c-1.5,5.9-14,5.2-13.4-0.3c0.1-0.6,0.7-4.7,1.1-7.7c0.7-4.3-4.1-4.8-4.9-0.6c-0.6,3-3.3,17.7-5.8,31.8h53.8v-76.1H25.1v76.1h52.6
	l-7.4-34.6H53.6z"/>
<g>
	<path class="st2" d="M209.5,276.9h-7.7l12.3,37.5h8.9l12.2-37.5h-7.1l-6.4,20.9c-1,3.3-1.9,6.5-2.8,9.8c-0.5-1.8-0.9-3.2-1.5-5
		c-0.5-1.9-0.9-3.3-1.5-5.2L209.5,276.9z M248.7,286.1c-2.6,0-5.1,0.7-7.4,1.9c-0.9,0.6-1.7,1.2-2.5,1.9c-2.6,2.8-4.1,6.6-4,10.5
		c-0.3,6,3.3,11.5,8.9,13.6c1.6,0.5,3.3,0.8,5,0.8c1.8,0,3.7-0.3,5.4-0.9c5.4-2.2,8.8-7.6,8.4-13.4c0-1.3-0.1-2.6-0.4-3.8
		c-0.9-4.1-3.6-7.6-7.4-9.4C252.8,286.4,250.7,286,248.7,286.1L248.7,286.1z M248.8,291.4c1.6,0,3.1,0.6,4.1,1.8
		c1.6,1.9,2.4,4.4,2.3,6.9c0.3,2.8-0.5,5.6-2.4,7.8c-1,1.1-2.5,1.7-4,1.7c-0.9,0-1.9-0.2-2.7-0.7c-0.8-0.4-1.4-1-1.9-1.7
		c-1.4-2-2.1-4.4-1.9-6.9c-0.2-2.7,0.7-5.4,2.6-7.3c0.5-0.5,1.2-0.9,1.8-1.1C247.3,291.5,248,291.3,248.8,291.4L248.8,291.4z
		 M268.4,273.8v40.5h6.9v-40.5H268.4z M289.6,273.8h-6.8v40.5h6.8v-13.8c1.2,2,2.1,3.4,3.4,5.3l5.8,8.5h8.4l-11.2-15.6l10-12.2h-8
		l-6,7.8c-1,1.2-1.6,2.1-2.5,3.4L289.6,273.8L289.6,273.8z M326.7,287.2c-2.3-0.6-4.7-1-7-1c-3.1-0.1-6.1,0.9-8.4,2.9
		c-1.5,1.5-2.3,3.5-2.3,5.6c0,1.8,0.6,3.6,1.7,5c2,1.8,4.4,3.1,7,3.7c1.2,0.5,3.2,1.1,3.2,2.9c0,1.8-1.9,3-4.8,3
		c-2.3-0.1-4.6-0.7-6.6-1.8l-0.4,6c2.5,0.8,5.2,1.2,7.8,1.2c1.7,0,3.4-0.2,5.1-0.7c1.7-0.6,3.1-1.7,4.2-3.2c1.1-1.4,1.7-3.2,1.6-5.1
		c0.1-3-1.6-5.9-4.3-7.2c-0.8-0.3-1.9-0.7-3.7-1.2c-1.2-0.4-2.4-0.9-3.5-1.7c-0.4-0.3-0.6-0.8-0.7-1.4c0-1.9,1.9-2.9,4.8-2.9
		c2,0.1,3.9,0.4,5.7,1L326.7,287.2L326.7,287.2z M333.5,273.8v40.5h6.6v-4.3c0.3,0.6,0.6,1.2,1,1.7c1.8,2.1,4.5,3.2,7.3,3
		c1.6,0,3.1-0.4,4.5-1c0.8-0.3,1.6-0.8,2.3-1.5c3.2-3.3,4.7-7.8,4.3-12.3c0-2-0.2-4-0.8-5.9c-0.9-4.8-5.3-8.2-10.2-8
		c-2.6-0.1-5.2,1-6.9,2.9c-0.5,0.5-0.9,1.2-1.3,1.8v-17.1H333.5z M346.8,291.9c1.4,0,2.6,0.6,3.6,1.6c0.5,0.5,0.8,1.1,1.1,1.7
		c0.7,1.6,1.1,3.4,1.1,5.2c0.1,2.7-0.9,5.4-2.7,7.4c-0.9,0.8-2,1.3-3.2,1.2c-1.5,0.1-3-0.5-3.9-1.7c-0.6-0.5-1-1.2-1.3-1.9
		c-0.7-1.5-1-3.1-1-4.7c0-2.5,0.7-6.8,4.3-8.3C345.4,292.1,346.1,292,346.8,291.9L346.8,291.9z M387.7,314.4
		c-0.1-3.4-0.2-5.8-0.2-9.1v-6.5c0.1-2.2-0.1-4.4-0.6-6.5c-0.5-1.3-1.3-2.5-2.3-3.5c-2.4-1.9-5.5-2.8-8.6-2.6
		c-3.1,0-6.2,0.6-9.1,1.9l0.2,6.2c0.8-0.7,1.7-1.3,2.7-1.7c1.7-0.8,3.5-1.2,5.4-1.2h0.6c1.7-0.1,3.3,0.7,4.3,2c0.7,1.2,1,2.6,1,4.1
		c-1.3-0.1-2.3-0.1-3.6-0.1h-0.3c-5.3,0-8.9,1-11,3c-3.4,3.2-3.5,8.6-0.2,12c1.7,1.8,4.1,2.7,6.6,2.6c2.1,0.1,4.2-0.4,6-1.5
		c1.2-0.7,2.3-1.8,2.9-3v4.1L387.7,314.4L387.7,314.4z M381.4,301.9c0,0-0.1,1.2-0.2,2c-0.2,3.4-2.9,6-6.3,6.1
		c-2,0.2-3.9-1.2-4.1-3.3c0-0.2,0-0.4,0-0.6c0-0.6,0.1-1.2,0.3-1.7c1.2-2.1,3.9-2.7,7.6-2.7C379.6,301.7,380.5,301.8,381.4,301.9
		L381.4,301.9z M419.7,314.4v-14.2c-0.1-5.1-0.1-8-1.7-10.3c-0.6-0.9-1.3-1.8-2.3-2.4c-1.6-0.9-3.4-1.4-5.2-1.4
		c-2-0.1-3.9,0.4-5.6,1.5c-1,0.5-1.8,1.2-2.6,2c-0.3,0.5-0.7,0.8-1,1.2v-4.3h-6.6c0.1,2.5,0.1,4.2,0.1,6.7v21.1h7v-13
		c0-3.3,0.2-6.2,2.7-8.1c0.9-0.9,2.2-1.3,3.5-1.2c0.7,0,1.3,0.1,1.9,0.3c0.9,0.5,1.6,1.2,2.1,2c0.8,2.1,1.1,4.3,0.9,6.5v13.4H419.7z
		 M434,273.8h-6.9v40.5h6.9v-13.8c1.2,2,1.9,3.4,3.2,5.3l5.8,8.5h8.6l-11.2-15.6l9.9-12.2h-7.9l-6.1,7.8c-0.9,1.2-1.5,2.1-2.4,3.4
		L434,273.8L434,273.8z M478.3,303c0.1-0.9,0.1-1.9,0.1-2.8c0-7.4-3.4-14.1-12-14.1c-3.8-0.1-7.4,1.5-9.7,4.5
		c-0.4,0.4-0.7,0.9-1,1.4c0,0.1-0.5,1-0.8,1.6c-1,2.3-1.5,4.8-1.4,7.3c0,7.4,3.8,11.4,8,13.1c1.9,0.7,3.9,1,6,1c3.2,0,6.3-0.7,9.2-2
		l-0.1-6.2c-0.7,0.4-1.3,0.8-2.1,1.1c-1.9,1-4.1,1.6-6.3,1.6c-2.9,0.1-5.6-1.3-7-3.7c-0.5-0.8-0.8-1.8-1-2.7L478.3,303z
		 M460.2,297.9c0-1.4,0.5-2.8,1.2-4.1c1.1-1.7,3-2.7,5-2.7c1.7,0,3.4,0.8,4.3,2.3c0.9,1.3,1.3,2.9,1.3,4.5H460.2z M509.1,314.4
		v-14.2c-0.1-5.1-0.2-8-1.7-10.3c-0.6-0.9-1.4-1.7-2.3-2.4c-1.6-1-3.4-1.4-5.3-1.4c-2-0.1-3.9,0.4-5.6,1.5c-1,0.5-1.8,1.2-2.5,2
		c-0.4,0.5-0.6,0.8-1.1,1.2v-4.3H484c0.1,2.5,0.2,4.2,0.2,6.7v21.1h6.9v-13c0.1-3.3,0.2-6.2,2.7-8.1c0.9-0.9,2.2-1.3,3.5-1.2
		c0.7,0,1.4,0.1,2.1,0.3c0.9,0.4,1.5,1.2,1.9,2c0.8,2.1,1.1,4.3,0.9,6.5v13.4H509.1z"/>
</g>
<g>
	<path class="st2" d="M228.3,359.6c-0.5-1.5-1.5-3.8-3.4-4.5c-0.4-0.1-0.9-0.2-1.3-0.2c1.2-0.1,2.3-0.4,3.4-0.9
		c0.4-0.1,0.8-0.4,1.1-0.7c2.3-1.7,3.5-4.4,3.4-7.2c0-1.7-0.3-3.3-1.1-4.8c-0.3-0.6-0.7-1.2-1.2-1.7c-3-3.3-8.2-3.3-11.4-3.3h-11
		v37.4h7.3v-15.6c1.3,0,2.6,0,3.9,0.1c0.5,0.2,1,0.4,1.5,0.7c1.4,1.6,2.4,3.4,2.9,5.4l3.5,9.4h8L228.3,359.6L228.3,359.6z M214,342
		h3.4c0.5,0,0.8,0.1,1.3,0.1c1.7-0.1,3.4,0.6,4.4,1.9c0.6,0.8,0.9,1.8,0.9,2.8c0,1-0.3,2-0.9,2.9c-1.4,1.8-3.6,2.7-5.8,2.4H214V342z
		 M260.7,373.6c-0.1-3.4-0.2-5.8-0.2-9v-6.7c0.1-2.2-0.1-4.4-0.7-6.5c-0.5-1.3-1.3-2.5-2.3-3.5c-2.4-1.9-5.5-2.8-8.6-2.6
		c-3.1,0-6.2,0.6-9.1,1.9l0.2,6.2c0.8-0.7,1.7-1.3,2.7-1.7c1.7-0.8,3.5-1.2,5.4-1.2h0.7c1.7-0.1,3.3,0.7,4.3,2c0.7,1.2,1,2.6,1,4.1
		c-1.3-0.1-2.3-0.1-3.6-0.1h-0.3c-5.3,0-8.9,1-11,3c-3.4,3.2-3.5,8.6-0.2,12c1.7,1.8,4.1,2.7,6.6,2.6c2.1,0.1,4.2-0.4,6-1.5
		c1.2-0.7,2.3-1.8,2.9-3v4.1L260.7,373.6z M254.4,361.1c0,0-0.1,1.2-0.2,2c-0.2,3.4-2.9,6-6.3,6.1c-2.1,0.2-4-1.2-4.2-3.3
		c0-0.1,0-0.3,0-0.4c0-0.6,0.1-1.3,0.4-1.8c1.2-2.1,3.9-2.7,7.6-2.7C252.6,360.9,253.5,361,254.4,361.1L254.4,361.1z M267.8,334.1
		v6.7h6.9v-6.7H267.8z M267.8,345.8v27.7h6.9v-27.7H267.8z M297.7,333.4c-1.2-0.3-2.5-0.4-3.8-0.5c-1.6,0-3.3,0.3-4.8,1
		c-2,0.9-3.5,2.7-4,4.8c-0.6,2.3-0.8,4.6-0.8,7h-5.2v5.4h5.2v22.3h6.9v-22.3h6v-5.4h-6c0-2.8,0.1-4.7,1.3-6c0.7-0.7,1.7-1.1,2.7-1
		c0.7,0.1,1.3,0.2,1.9,0.3L297.7,333.4L297.7,333.4z M318.3,333.4c-1.2-0.3-2.5-0.4-3.8-0.5c-1.6,0-3.3,0.3-4.8,1
		c-2,0.9-3.5,2.7-4,4.8c-0.6,2.3-0.8,4.6-0.8,7h-5.2v5.4h5.2v22.3h6.9v-22.3h6v-5.4h-6c0-2.8,0.1-4.7,1.3-6c0.7-0.7,1.7-1.1,2.7-1
		c0.7,0.1,1.3,0.2,1.9,0.3L318.3,333.4L318.3,333.4z M345.5,362.2v-2.8c0-7.4-3.4-14.1-11.9-14.1c-3.8-0.2-7.4,1.5-9.7,4.5
		c-0.4,0.4-0.8,0.8-1,1.4c-0.1,0.1-0.5,1-0.9,1.6c-1,2.3-1.5,4.8-1.4,7.3c0,7.4,3.8,11.4,8,13.1c1.9,0.7,3.9,1,6,1
		c3.2,0.1,6.3-0.6,9.2-2l-0.1-6.2c-0.1,0.1-1.2,0.8-1.9,1.2c-2,1-4.1,1.5-6.3,1.5c-2.9,0.2-5.7-1.2-7.1-3.7c-0.4-0.9-0.8-1.8-1-2.7
		L345.5,362.2z M327.3,357.1c0.2-1.4,0.6-2.8,1.3-4.1c1.1-1.7,3-2.7,5-2.7c1.7,0,3.3,0.8,4.2,2.3c0.9,1.3,1.4,2.9,1.4,4.5H327.3z
		 M351.2,334.1v6.7h6.9v-6.7H351.2z M351.2,345.8v27.7h6.9v-27.7H351.2z M381.5,346.5c-2.3-0.7-4.7-1.1-7-1.1
		c-3.1-0.1-6.1,0.9-8.6,2.9c-1.5,1.5-2.3,3.5-2.3,5.6c0,1.8,0.6,3.6,1.8,5c1.9,1.9,4.4,3.2,7,3.7c1.2,0.5,3.2,1.1,3.2,2.9
		c0,1.8-1.9,3-4.8,3c-2.3-0.1-4.6-0.7-6.7-1.8l-0.3,6c2.5,0.8,5.2,1.2,7.8,1.2c1.7,0,3.4-0.2,5-0.7c1.7-0.6,3.2-1.7,4.3-3.2
		c1.1-1.4,1.7-3.2,1.6-5.1c0-3.1-1.7-5.9-4.4-7.2c-0.8-0.3-1.8-0.7-3.6-1.2c-1.2-0.4-2.4-0.9-3.6-1.6c-0.3-0.4-0.5-0.9-0.5-1.5
		c0-1.9,1.9-2.9,4.8-2.9c1.9,0.1,3.8,0.4,5.6,1L381.5,346.5L381.5,346.5z M411.5,362.2c0.1-0.9,0.1-1.9,0.1-2.8
		c0-7.4-3.4-14.1-12-14.1c-3.8-0.1-7.4,1.5-9.7,4.5c-0.4,0.4-0.7,0.9-1,1.4c0,0.1-0.5,1-0.8,1.6c-1,2.3-1.5,4.8-1.4,7.3
		c0,7.4,3.8,11.4,8,13.1c1.9,0.7,3.9,1.1,6,1c3.2,0,6.3-0.7,9.2-2l-0.1-6.2c-0.2,0.1-1.2,0.8-2.1,1.2c-2,1-4.1,1.5-6.3,1.5
		c-2.9,0.2-5.6-1.2-7-3.7c-0.5-0.8-0.8-1.8-1-2.7L411.5,362.2z M393.4,357.1c0-1.4,0.5-2.8,1.2-4.1c1.1-1.7,3-2.7,5-2.7
		c1.7,0,3.4,0.8,4.3,2.3c0.9,1.3,1.3,2.9,1.3,4.5H393.4z M442.3,373.6v-14.2c-0.1-5.1-0.2-8-1.7-10.3c-0.6-0.9-1.4-1.7-2.3-2.4
		c-1.6-1-3.4-1.4-5.3-1.4c-2,0-3.9,0.5-5.6,1.5c-1,0.5-1.8,1.2-2.5,2c-0.4,0.5-0.7,0.8-1.1,1.2v-4.3h-6.7c0.1,2.5,0.2,4.2,0.2,6.7
		v21.1h6.9v-13c0.1-3.3,0.2-6.2,2.7-8.1c0.9-0.9,2.2-1.3,3.5-1.2c0.7,0,1.4,0.1,2.1,0.5c0.9,0.4,1.6,1.1,1.9,1.9
		c0.8,2.1,1.1,4.3,0.9,6.5v13.4L442.3,373.6z M449.6,333.1v40.5h6.5v-4.3c0.1,0.1,0.5,1,1.1,1.7c1.8,2.1,4.5,3.3,7.3,3
		c1.6,0,3.1-0.3,4.5-0.9c0.8-0.4,1.5-1,2.2-1.6c3.1-3.3,4.8-7.8,4.4-12.3c0.1-2-0.2-4-0.9-5.9c-0.9-4.8-5.2-8.2-10.1-8
		c-2.7-0.1-5.2,1-7,2.9c-0.3,0.5-0.7,0.9-1.2,1.8v-17L449.6,333.1L449.6,333.1z M462.8,351.1c1.3,0.1,2.6,0.6,3.6,1.6
		c0.4,0.5,0.8,1.1,1.1,1.7c0.7,1.6,1,3.4,1,5.2c0.1,2.8-0.8,5.5-2.7,7.6c-2.2,1.7-5.3,1.5-7.1-0.6c-0.5-0.6-0.9-1.2-1.2-1.9
		c-0.7-1.5-1-3.1-1-4.7c0-2.5,0.6-6.8,4.2-8.3C461.4,351.3,462.1,351.2,462.8,351.1L462.8,351.1z M503.7,373.6
		c-0.1-3.4-0.1-5.8-0.1-9v-6.7c0.1-2.2-0.1-4.4-0.8-6.5c-0.5-1.3-1.3-2.5-2.3-3.5c-2.4-1.9-5.4-2.8-8.4-2.6c-3.1,0-6.2,0.6-9.1,1.9
		l0.1,6.2c0.8-0.7,1.7-1.2,2.7-1.7c1.7-0.8,3.5-1.2,5.4-1.2h0.8c1.7-0.1,3.3,0.7,4.3,2c0.7,1.2,1,2.6,1,4.1
		c-1.3-0.1-2.3-0.1-3.6-0.1h-0.3c-5.3,0-8.9,1-11.2,3c-1.7,1.5-2.6,3.7-2.5,6c-0.1,3.4,1.6,8.6,9,8.6c2.1,0.1,4.2-0.4,6-1.5
		c1.2-0.7,2.2-1.8,2.9-3v4.1L503.7,373.6z M497.4,361.1c0,0.7,0,1.4-0.1,2c-0.2,3.3-2.9,6-6.3,6.1c-2.1,0.2-4-1.2-4.2-3.3
		c0-0.1,0-0.3,0-0.4c0-0.6,0.1-1.3,0.4-1.8c1.2-2.1,3.9-2.7,7.6-2.7C495.7,360.9,496.6,361,497.4,361.1L497.4,361.1z M535.8,373.6
		v-14.2c-0.1-5.1-0.1-8-1.7-10.3c-0.6-1-1.3-1.8-2.3-2.4c-1.6-0.9-3.4-1.4-5.2-1.4c-2-0.1-3.9,0.4-5.6,1.5c-1,0.5-1.9,1.2-2.6,2
		c-0.4,0.4-0.7,0.8-1,1.2v-4.3h-6.7c0.1,2.5,0.2,4.2,0.2,6.7v21.1h6.9v-13c0.1-3.3,0.3-6.2,2.7-8.1c0.9-0.9,2.2-1.3,3.5-1.2
		c0.7,0,1.4,0.1,2.1,0.5c0.9,0.4,1.6,1.1,1.9,1.9c0.8,2.1,1.1,4.3,1,6.5v13.4L535.8,373.6z M550,333.1h-6.8v40.5h6.8v-13.8
		c1.2,2,2.1,3.4,3.4,5.3l5.8,8.5h8.6l-11.3-15.6l10-12.2h-8l-6,7.8c-1,1.2-1.6,2.1-2.5,3.4L550,333.1L550,333.1z M594.5,362.2v-2.8
		c0-7.4-3.4-14.1-11.9-14.1c-3.8-0.2-7.4,1.5-9.7,4.5c-0.4,0.4-0.7,0.9-1,1.4c-0.1,0.1-0.5,1-0.9,1.6c-0.9,2.3-1.3,4.8-1.3,7.3
		c0,7.4,3.7,11.4,7.9,13.1c1.9,0.7,4,1,6.1,1c3.1,0,6.3-0.6,9.1-2v-6.2c-0.2,0.1-1.3,0.8-2.1,1.2c-2,1-4.1,1.5-6.3,1.5
		c-2.9,0.2-5.7-1.2-7.1-3.7c-0.4-0.9-0.8-1.8-1-2.7L594.5,362.2z M576.2,357.1c0.2-1.4,0.6-2.8,1.3-4.1c1.1-1.7,3-2.7,5-2.7
		c1.7,0,3.4,0.8,4.3,2.3c0.8,1.4,1.3,2.9,1.3,4.5H576.2z M625.1,373.6v-14.2c-0.1-5.1-0.1-8-1.7-10.3c-0.6-1-1.3-1.8-2.3-2.4
		c-1.6-0.9-3.4-1.4-5.2-1.4c-2,0-3.9,0.5-5.6,1.5c-1,0.5-1.8,1.2-2.6,2c-0.3,0.5-0.7,0.8-1,1.2v-4.3h-6.6c0.1,2.5,0.1,4.2,0.1,6.7
		v21.1h7v-13c0-3.3,0.2-6.2,2.7-8.1c0.9-0.9,2.2-1.3,3.5-1.2c0.7,0,1.4,0.1,1.9,0.5c0.9,0.4,1.6,1.1,2.1,1.9
		c0.8,2.1,1.1,4.3,0.9,6.5v13.4L625.1,373.6z"/>
</g>
</svg>
