<svg xmlns="http://www.w3.org/2000/svg" viewBox="0 0 100 100">
    <rect width="100" height="100" fill="#171614"/>
    <g transform="translate(10,30) scale(0.012,-0.012)" fill="#FFFFFF">
      <path d="M2100 680 l0 -650 145 0 145 0 0 144 0 143 81 73 c44 40 84 69 88 64 4 -5 88 -102 186 -216 l178 -208 165 0 c156 0 164 1 150 18 -8 9 -106 125 -218 257 -112 132 -212 250 -222 261 l-20 22 215 188 215 189 -185 3 -184 2 -215 -190 c-118 -104 -219 -190 -225 -190 -5 0 -9 147 -9 370 l0 370 -145 0 -145 0 0 -650z"/>
    </g>
  </svg>